<mxfile host="app.diagrams.net" modified="2022-10-19T17:50:46.795Z" agent="5.0 (Macintosh; Intel Mac OS X 10_15_7) AppleWebKit/537.36 (KHTML, like Gecko) Chrome/106.0.0.0 Safari/537.36 Edg/106.0.1370.34" etag="KM7bivpH4p0tZ3XLsGtH" version="20.4.2" type="github">
  <diagram id="qwKRBattrOxvVShx7A_8" name="Page-1">
    <mxGraphModel dx="968" dy="1823" grid="1" gridSize="10" guides="1" tooltips="1" connect="1" arrows="1" fold="1" page="1" pageScale="1" pageWidth="827" pageHeight="1169" math="0" shadow="0">
      <root>
        <mxCell id="0" />
        <mxCell id="1" parent="0" />
        <mxCell id="mhKGrX9BA1GWk8lQh-1W-42" value="" style="whiteSpace=wrap;html=1;rounded=1;dashed=1;fontSize=11;" parent="1" vertex="1">
          <mxGeometry x="40" y="-20" width="780" height="450" as="geometry" />
        </mxCell>
        <mxCell id="aP8lu7kHr-6-15jdSYuo-8" value="" style="whiteSpace=wrap;html=1;dashed=1;rounded=1;" parent="1" vertex="1">
          <mxGeometry x="513" y="70" width="262" height="320" as="geometry" />
        </mxCell>
        <mxCell id="aP8lu7kHr-6-15jdSYuo-2" value="" style="shape=image;verticalLabelPosition=bottom;labelBackgroundColor=#ffffff;verticalAlign=top;aspect=fixed;imageAspect=0;image=https://blog.alexellis.io/content/images/2017/08/faas_side.png;" parent="1" vertex="1">
          <mxGeometry x="556.28" y="92" width="177.44" height="41.29" as="geometry" />
        </mxCell>
        <mxCell id="aP8lu7kHr-6-15jdSYuo-43" style="edgeStyle=orthogonalEdgeStyle;rounded=0;orthogonalLoop=1;jettySize=auto;html=1;fontSize=12;fontColor=#000000;exitX=0.817;exitY=1;exitDx=0;exitDy=0;exitPerimeter=0;" parent="1" source="aP8lu7kHr-6-15jdSYuo-13" target="aP8lu7kHr-6-15jdSYuo-20" edge="1">
          <mxGeometry relative="1" as="geometry" />
        </mxCell>
        <mxCell id="aP8lu7kHr-6-15jdSYuo-87" value="invoke" style="edgeLabel;html=1;align=center;verticalAlign=middle;resizable=0;points=[];fontSize=12;fontColor=#000000;" parent="aP8lu7kHr-6-15jdSYuo-43" vertex="1" connectable="0">
          <mxGeometry x="-0.3619" y="1" relative="1" as="geometry">
            <mxPoint y="2" as="offset" />
          </mxGeometry>
        </mxCell>
        <mxCell id="aP8lu7kHr-6-15jdSYuo-13" value="Gateway" style="whiteSpace=wrap;html=1;rounded=1;dashed=1;fillColor=#1ba1e2;fontColor=#ffffff;strokeColor=#006EAF;fontSize=18;" parent="1" vertex="1">
          <mxGeometry x="556.28" y="160" width="180" height="56" as="geometry" />
        </mxCell>
        <mxCell id="aP8lu7kHr-6-15jdSYuo-40" style="edgeStyle=orthogonalEdgeStyle;rounded=0;orthogonalLoop=1;jettySize=auto;html=1;entryX=0.19;entryY=1;entryDx=0;entryDy=0;entryPerimeter=0;fontSize=12;fontColor=#000000;" parent="1" source="aP8lu7kHr-6-15jdSYuo-19" target="aP8lu7kHr-6-15jdSYuo-13" edge="1">
          <mxGeometry relative="1" as="geometry" />
        </mxCell>
        <mxCell id="aP8lu7kHr-6-15jdSYuo-86" value="invoke functions" style="edgeLabel;html=1;align=center;verticalAlign=middle;resizable=0;points=[];fontSize=12;fontColor=#000000;" parent="aP8lu7kHr-6-15jdSYuo-40" vertex="1" connectable="0">
          <mxGeometry x="0.2275" y="1" relative="1" as="geometry">
            <mxPoint y="5" as="offset" />
          </mxGeometry>
        </mxCell>
        <mxCell id="aP8lu7kHr-6-15jdSYuo-24" value="" style="whiteSpace=wrap;html=1;rounded=1;dashed=1;fontSize=11;" parent="1" vertex="1">
          <mxGeometry x="80" y="20" width="395" height="370" as="geometry" />
        </mxCell>
        <mxCell id="9fec3kT4lAsuusmE1DYj-2" style="edgeStyle=orthogonalEdgeStyle;rounded=0;orthogonalLoop=1;jettySize=auto;html=1;entryX=1;entryY=0.5;entryDx=0;entryDy=0;dashed=1;" parent="1" source="aP8lu7kHr-6-15jdSYuo-19" target="aP8lu7kHr-6-15jdSYuo-47" edge="1">
          <mxGeometry relative="1" as="geometry">
            <Array as="points">
              <mxPoint x="589" y="363" />
            </Array>
          </mxGeometry>
        </mxCell>
        <mxCell id="9fec3kT4lAsuusmE1DYj-3" value="&lt;span style=&quot;font-size: 12px;&quot;&gt;publish&lt;/span&gt;" style="edgeLabel;html=1;align=center;verticalAlign=middle;resizable=0;points=[];" parent="9fec3kT4lAsuusmE1DYj-2" vertex="1" connectable="0">
          <mxGeometry x="-0.1661" y="1" relative="1" as="geometry">
            <mxPoint x="-5" y="-2" as="offset" />
          </mxGeometry>
        </mxCell>
        <mxCell id="aP8lu7kHr-6-15jdSYuo-19" value="Workflow&lt;br&gt;Engine" style="ellipse;whiteSpace=wrap;html=1;rounded=1;dashed=1;fontSize=11;fillColor=#FF8000;fontColor=#ffffff;strokeColor=#006EAF;" parent="1" vertex="1">
          <mxGeometry x="556.28" y="274" width="66" height="66" as="geometry" />
        </mxCell>
        <mxCell id="aP8lu7kHr-6-15jdSYuo-20" value="Regular&lt;br&gt;Functions" style="ellipse;whiteSpace=wrap;html=1;rounded=1;dashed=1;fontSize=11;fillColor=#1ba1e2;fontColor=#ffffff;strokeColor=#006EAF;" parent="1" vertex="1">
          <mxGeometry x="669" y="274" width="66" height="66" as="geometry" />
        </mxCell>
        <mxCell id="mhKGrX9BA1GWk8lQh-1W-56" style="edgeStyle=orthogonalEdgeStyle;rounded=0;orthogonalLoop=1;jettySize=auto;html=1;fontSize=12;startArrow=none;startFill=0;endArrow=classic;endFill=1;" parent="1" source="aP8lu7kHr-6-15jdSYuo-34" target="mhKGrX9BA1GWk8lQh-1W-43" edge="1">
          <mxGeometry relative="1" as="geometry">
            <Array as="points">
              <mxPoint x="250" y="156" />
              <mxPoint x="250" y="156" />
            </Array>
          </mxGeometry>
        </mxCell>
        <mxCell id="mhKGrX9BA1GWk8lQh-1W-63" value="&lt;font style=&quot;font-size: 12px;&quot;&gt;metrics&lt;/font&gt;" style="edgeLabel;html=1;align=center;verticalAlign=middle;resizable=0;points=[];fontSize=18;" parent="mhKGrX9BA1GWk8lQh-1W-56" vertex="1" connectable="0">
          <mxGeometry x="-0.1571" y="1" relative="1" as="geometry">
            <mxPoint y="-2" as="offset" />
          </mxGeometry>
        </mxCell>
        <mxCell id="mhKGrX9BA1GWk8lQh-1W-60" style="edgeStyle=orthogonalEdgeStyle;rounded=0;orthogonalLoop=1;jettySize=auto;html=1;entryX=0;entryY=0.5;entryDx=0;entryDy=0;fontSize=12;startArrow=none;startFill=0;endArrow=classic;endFill=1;exitX=0.5;exitY=1;exitDx=0;exitDy=0;" parent="1" source="aP8lu7kHr-6-15jdSYuo-34" target="aP8lu7kHr-6-15jdSYuo-95" edge="1">
          <mxGeometry relative="1" as="geometry" />
        </mxCell>
        <mxCell id="mhKGrX9BA1GWk8lQh-1W-61" value="create" style="edgeLabel;html=1;align=center;verticalAlign=middle;resizable=0;points=[];fontSize=12;" parent="mhKGrX9BA1GWk8lQh-1W-60" vertex="1" connectable="0">
          <mxGeometry x="-0.1512" y="-3" relative="1" as="geometry">
            <mxPoint x="60" y="-3" as="offset" />
          </mxGeometry>
        </mxCell>
        <mxCell id="aP8lu7kHr-6-15jdSYuo-34" value="API Server" style="whiteSpace=wrap;html=1;rounded=1;dashed=1;fontSize=18;fillColor=#FF8000;strokeColor=#36393d;fontColor=#FFFFFF;" parent="1" vertex="1">
          <mxGeometry x="110" y="124" width="120" height="60" as="geometry" />
        </mxCell>
        <mxCell id="mhKGrX9BA1GWk8lQh-1W-25" style="edgeStyle=orthogonalEdgeStyle;rounded=0;orthogonalLoop=1;jettySize=auto;html=1;entryX=0.5;entryY=0;entryDx=0;entryDy=0;dashed=1;" parent="1" source="aP8lu7kHr-6-15jdSYuo-46" target="aP8lu7kHr-6-15jdSYuo-47" edge="1">
          <mxGeometry relative="1" as="geometry" />
        </mxCell>
        <mxCell id="mhKGrX9BA1GWk8lQh-1W-26" value="&lt;span style=&quot;font-size: 10px;&quot;&gt;subscribe&lt;/span&gt;" style="edgeLabel;html=1;align=center;verticalAlign=middle;resizable=0;points=[];" parent="mhKGrX9BA1GWk8lQh-1W-25" vertex="1" connectable="0">
          <mxGeometry x="0.25" y="-1" relative="1" as="geometry">
            <mxPoint y="-7" as="offset" />
          </mxGeometry>
        </mxCell>
        <mxCell id="aP8lu7kHr-6-15jdSYuo-46" value="Monitor" style="whiteSpace=wrap;html=1;rounded=1;dashed=1;fontSize=18;fillColor=#FF8000;strokeColor=#36393d;fontColor=#FFFFFF;" parent="1" vertex="1">
          <mxGeometry x="215" y="250" width="120" height="60" as="geometry" />
        </mxCell>
        <mxCell id="aP8lu7kHr-6-15jdSYuo-47" value="" style="shape=image;verticalLabelPosition=bottom;labelBackgroundColor=#ffffff;verticalAlign=top;aspect=fixed;imageAspect=0;image=https://nats.io/img/logos/nats-horizontal-color.png;" parent="1" vertex="1">
          <mxGeometry x="216.79000000000002" y="348" width="116.42" height="30" as="geometry" />
        </mxCell>
        <mxCell id="aP8lu7kHr-6-15jdSYuo-84" style="edgeStyle=orthogonalEdgeStyle;rounded=0;orthogonalLoop=1;jettySize=auto;html=1;fontSize=12;fontColor=#000000;startArrow=classic;startFill=1;endArrow=classic;endFill=1;entryX=0;entryY=0.594;entryDx=0;entryDy=0;entryPerimeter=0;" parent="1" source="aP8lu7kHr-6-15jdSYuo-67" target="aP8lu7kHr-6-15jdSYuo-46" edge="1">
          <mxGeometry relative="1" as="geometry">
            <mxPoint x="143" y="285.0000000000001" as="sourcePoint" />
            <mxPoint x="234" y="289" as="targetPoint" />
          </mxGeometry>
        </mxCell>
        <mxCell id="5eD1sTKq9rPllBMNLXjM-1" style="edgeStyle=orthogonalEdgeStyle;rounded=0;orthogonalLoop=1;jettySize=auto;html=1;entryX=0.219;entryY=0.983;entryDx=0;entryDy=0;entryPerimeter=0;startArrow=classic;startFill=1;" edge="1" parent="1">
          <mxGeometry relative="1" as="geometry">
            <mxPoint x="137.99999999999994" y="260" as="sourcePoint" />
            <mxPoint x="137.28000000000003" y="182.98000000000002" as="targetPoint" />
            <Array as="points">
              <mxPoint x="138" y="222" />
              <mxPoint x="137" y="222" />
            </Array>
          </mxGeometry>
        </mxCell>
        <mxCell id="aP8lu7kHr-6-15jdSYuo-67" value="" style="shape=image;imageAspect=0;aspect=fixed;verticalLabelPosition=bottom;verticalAlign=top;rounded=1;dashed=1;fontSize=12;fontColor=#000000;fillColor=#FF8000;image=https://raw.githubusercontent.com/github/explore/80688e429a7d4ef2fca1e82350fe8e3517d3494d/topics/postgresql/postgresql.png;" parent="1" vertex="1">
          <mxGeometry x="112" y="260" width="50" height="50" as="geometry" />
        </mxCell>
        <mxCell id="mhKGrX9BA1GWk8lQh-1W-66" style="edgeStyle=orthogonalEdgeStyle;rounded=0;orthogonalLoop=1;jettySize=auto;html=1;entryX=0;entryY=0.5;entryDx=0;entryDy=0;fontSize=12;startArrow=none;startFill=0;endArrow=classic;endFill=1;exitX=0.5;exitY=0;exitDx=0;exitDy=0;dashed=1;" parent="1" source="aP8lu7kHr-6-15jdSYuo-95" target="aP8lu7kHr-6-15jdSYuo-13" edge="1">
          <mxGeometry relative="1" as="geometry">
            <Array as="points">
              <mxPoint x="396" y="188" />
            </Array>
          </mxGeometry>
        </mxCell>
        <mxCell id="mhKGrX9BA1GWk8lQh-1W-68" value="send execution" style="edgeLabel;html=1;align=center;verticalAlign=middle;resizable=0;points=[];fontSize=12;" parent="mhKGrX9BA1GWk8lQh-1W-66" vertex="1" connectable="0">
          <mxGeometry x="-0.4332" relative="1" as="geometry">
            <mxPoint x="65" y="-1" as="offset" />
          </mxGeometry>
        </mxCell>
        <mxCell id="aP8lu7kHr-6-15jdSYuo-95" value="Triggers" style="ellipse;whiteSpace=wrap;html=1;rounded=1;dashed=1;fontSize=12;fillColor=#FF8000;fontColor=#ffffff;strokeColor=#006EAF;" parent="1" vertex="1">
          <mxGeometry x="369" y="201" width="53" height="53" as="geometry" />
        </mxCell>
        <mxCell id="aP8lu7kHr-6-15jdSYuo-105" value="Walle Workflow" style="text;html=1;resizable=0;autosize=1;align=center;verticalAlign=middle;points=[];fillColor=none;strokeColor=none;rounded=0;dashed=1;fontSize=24;fontColor=#FF8000;fontStyle=1" parent="1" vertex="1">
          <mxGeometry x="544" y="10" width="200" height="40" as="geometry" />
        </mxCell>
        <mxCell id="mhKGrX9BA1GWk8lQh-1W-15" value="&lt;font style=&quot;font-size: 18px;&quot;&gt;UI&lt;br&gt;Dashboard&lt;/font&gt;" style="whiteSpace=wrap;html=1;rounded=1;dashed=1;fontSize=16;fillColor=#FF8000;strokeColor=#36393d;fontColor=#FFFFFF;" parent="1" vertex="1">
          <mxGeometry x="110" y="40" width="120" height="60" as="geometry" />
        </mxCell>
        <mxCell id="mhKGrX9BA1GWk8lQh-1W-30" style="edgeStyle=orthogonalEdgeStyle;rounded=0;orthogonalLoop=1;jettySize=auto;html=1;" parent="1" source="mhKGrX9BA1GWk8lQh-1W-28" edge="1">
          <mxGeometry relative="1" as="geometry">
            <mxPoint x="230" y="140" as="targetPoint" />
            <Array as="points">
              <mxPoint x="260" y="70" />
              <mxPoint x="260" y="140" />
            </Array>
          </mxGeometry>
        </mxCell>
        <mxCell id="mhKGrX9BA1GWk8lQh-1W-31" style="edgeStyle=orthogonalEdgeStyle;rounded=0;orthogonalLoop=1;jettySize=auto;html=1;entryX=1;entryY=0.5;entryDx=0;entryDy=0;" parent="1" source="mhKGrX9BA1GWk8lQh-1W-28" target="mhKGrX9BA1GWk8lQh-1W-15" edge="1">
          <mxGeometry relative="1" as="geometry" />
        </mxCell>
        <mxCell id="mhKGrX9BA1GWk8lQh-1W-48" style="edgeStyle=orthogonalEdgeStyle;rounded=0;orthogonalLoop=1;jettySize=auto;html=1;fontSize=12;" parent="1" edge="1">
          <mxGeometry relative="1" as="geometry">
            <mxPoint x="393" y="99.99999999999977" as="sourcePoint" />
            <mxPoint x="393" y="131.50000000000023" as="targetPoint" />
            <Array as="points">
              <mxPoint x="393" y="110" />
              <mxPoint x="393" y="110" />
            </Array>
          </mxGeometry>
        </mxCell>
        <mxCell id="mhKGrX9BA1GWk8lQh-1W-67" style="edgeStyle=orthogonalEdgeStyle;rounded=0;orthogonalLoop=1;jettySize=auto;html=1;entryX=1;entryY=0.5;entryDx=0;entryDy=0;fontSize=12;startArrow=none;startFill=0;endArrow=classic;endFill=1;exitX=1;exitY=0.5;exitDx=0;exitDy=0;" parent="1" source="mhKGrX9BA1GWk8lQh-1W-28" target="aP8lu7kHr-6-15jdSYuo-95" edge="1">
          <mxGeometry relative="1" as="geometry">
            <Array as="points">
              <mxPoint x="450" y="70" />
              <mxPoint x="450" y="228" />
            </Array>
          </mxGeometry>
        </mxCell>
        <mxCell id="mhKGrX9BA1GWk8lQh-1W-28" value="Ingress Gateway" style="whiteSpace=wrap;html=1;rounded=1;dashed=1;fontSize=18;fillColor=#326ce5;strokeColor=#36393d;fontColor=#FFFFFF;" parent="1" vertex="1">
          <mxGeometry x="320" y="40" width="120" height="60" as="geometry" />
        </mxCell>
        <mxCell id="mhKGrX9BA1GWk8lQh-1W-43" value="" style="shape=image;imageAspect=0;aspect=fixed;verticalLabelPosition=bottom;verticalAlign=top;rounded=1;dashed=1;fontSize=12;fontColor=#000000;fillColor=#FF8000;image=https://avatars.githubusercontent.com/u/3380462?s=200&amp;v=4;" parent="1" vertex="1">
          <mxGeometry x="300.00000000000006" y="133.5" width="45" height="45" as="geometry" />
        </mxCell>
        <mxCell id="mhKGrX9BA1GWk8lQh-1W-51" style="edgeStyle=orthogonalEdgeStyle;rounded=0;orthogonalLoop=1;jettySize=auto;html=1;fontSize=12;startArrow=none;startFill=0;" parent="1" source="mhKGrX9BA1GWk8lQh-1W-47" target="mhKGrX9BA1GWk8lQh-1W-43" edge="1">
          <mxGeometry relative="1" as="geometry" />
        </mxCell>
        <mxCell id="mhKGrX9BA1GWk8lQh-1W-47" value="" style="shape=image;verticalLabelPosition=bottom;labelBackgroundColor=default;verticalAlign=top;aspect=fixed;imageAspect=0;image=https://cdn.icon-icons.com/icons2/2699/PNG/512/grafana_logo_icon_171048.png;" parent="1" vertex="1">
          <mxGeometry x="369" y="133.5" width="45" height="45" as="geometry" />
        </mxCell>
        <mxCell id="wrSZvNudCL4GZvBI3URx-5" value="" style="shape=image;verticalLabelPosition=bottom;labelBackgroundColor=default;verticalAlign=top;aspect=fixed;imageAspect=0;image=https://raw.githubusercontent.com/kubernetes/kubernetes/master/logo/logo.png;" parent="1" vertex="1">
          <mxGeometry x="767" y="-30" width="60" height="58.26" as="geometry" />
        </mxCell>
      </root>
    </mxGraphModel>
  </diagram>
</mxfile>
